<svg xmlns="http://www.w3.org/2000/svg" width="128" height="128" fill="none"><circle cx="64" cy="64" r="64" fill="url(#a)"/><path fill="#fff" d="M16.864 57.818v-5.09H37.09v5.09h-7V76h-6.227V57.818h-7Zm44.056 6.546c0 2.59-.503 4.776-1.51 6.556-1.008 1.773-2.368 3.118-4.08 4.034-1.713.91-3.622 1.364-5.728 1.364-2.12 0-4.038-.458-5.75-1.375-1.704-.924-3.06-2.272-4.068-4.045-1-1.78-1.5-3.959-1.5-6.534 0-2.591.5-4.773 1.5-6.546 1.008-1.78 2.364-3.125 4.068-4.034 1.712-.917 3.63-1.375 5.75-1.375 2.106 0 4.015.458 5.728 1.375 1.712.91 3.072 2.254 4.08 4.034 1.007 1.773 1.51 3.955 1.51 6.546Zm-6.5 0c0-1.394-.185-2.569-.556-3.523-.364-.962-.906-1.69-1.625-2.182-.712-.5-1.591-.75-2.637-.75-1.045 0-1.928.25-2.647.75-.713.492-1.254 1.22-1.625 2.182-.364.954-.546 2.129-.546 3.523 0 1.394.182 2.572.546 3.534.37.954.912 1.681 1.625 2.181.72.493 1.602.74 2.647.74 1.046 0 1.925-.247 2.637-.74.72-.5 1.261-1.227 1.625-2.181.37-.962.556-2.14.556-3.534ZM72.798 76h-8.954V52.727h8.863c2.394 0 4.463.466 6.205 1.398a9.626 9.626 0 0 1 4.045 4c.955 1.735 1.432 3.814 1.432 6.239 0 2.424-.473 4.507-1.42 6.25a9.746 9.746 0 0 1-4.023 4C77.211 75.538 75.162 76 72.798 76Zm-2.636-5.364h2.409c1.151 0 2.133-.185 2.943-.556.818-.372 1.44-1.012 1.864-1.92.432-.91.648-2.175.648-3.796 0-1.622-.22-2.887-.66-3.796-.431-.909-1.068-1.55-1.909-1.92-.833-.372-1.856-.557-3.068-.557h-2.227v12.545Zm39.696-6.272c0 2.59-.504 4.776-1.511 6.556-1.008 1.773-2.368 3.118-4.08 4.034-1.712.91-3.621 1.364-5.727 1.364-2.121 0-4.038-.458-5.75-1.375-1.705-.924-3.06-2.272-4.068-4.045-1-1.78-1.5-3.959-1.5-6.534 0-2.591.5-4.773 1.5-6.546 1.007-1.78 2.363-3.125 4.068-4.034 1.712-.917 3.629-1.375 5.75-1.375 2.106 0 4.015.458 5.727 1.375 1.712.91 3.072 2.254 4.08 4.034 1.007 1.773 1.511 3.955 1.511 6.546Zm-6.5 0c0-1.394-.186-2.569-.557-3.523-.363-.962-.905-1.69-1.625-2.182-.712-.5-1.59-.75-2.636-.75s-1.928.25-2.648.75c-.712.492-1.254 1.22-1.625 2.182-.364.954-.545 2.129-.545 3.523 0 1.394.181 2.572.545 3.534.371.954.913 1.681 1.625 2.181.72.493 1.602.74 2.648.74 1.045 0 1.924-.247 2.636-.74.72-.5 1.262-1.227 1.625-2.181.371-.962.557-2.14.557-3.534Z" style="mix-blend-mode:overlay"/><defs><linearGradient id="a" x1="0" x2="128" y1="0" y2="128" gradientUnits="userSpaceOnUse"><stop stop-color="#4EA8DE"/><stop offset="1" stop-color="#1E6F9F"/></linearGradient></defs></svg>